# xmcd
#
# Track frame offsets: 
#        150
#        20151
#        42707
#        57443
#        74023
#        88944
#        102395
#        119387
#        135604
#        149097
#        165331
#        192766
#        207669
#        220931
#        237534
#        253309
#        267143
#        280697
#        297361
#        314503
#
# Disc length: 4437 seconds
#
# Revision: 0
# Processed by: cddbd v1.5.2PL0 Copyright (c) Steve Scherf et al.
# Submitted via: ExactAudioCopy v0.99pb5
#
DISCID=54115314
DTITLE=Elevated Ruffians - Magnificent Ruffians [Disc 1]
DYEAR=2009
DGENRE=Hip-Hop
TTITLE0=01 Intro 
TTITLE1=02 Extended  Fam
TTITLE2=03 HeaYeah
TTITLE3=04 WatchYourStep
TTITLE4=05 The Snap Track
TTITLE5=06 Changes
TTITLE6=07 WaterTheSeeds
TTITLE7=08 Renaissance
TTITLE8=09 Culture
TTITLE9=10 IveDoneMore
TTITLE10=11 All Wrong
TTITLE11=12 LiftYourSpirits
TTITLE12=13 BoomBap Vs. Abstract
TTITLE13=14 That'sNuthinNew
TTITLE14=15 I CantUnderstand
TTITLE15=16 He'sAHater
TTITLE16=17  Sweet Time
TTITLE17=18 RealSpitters
TTITLE18=19 Jewels
TTITLE19=20 Loser
EXTD=
EXTT0=
EXTT1=
EXTT2=
EXTT3=
EXTT4=
EXTT5=
EXTT6=
EXTT7=
EXTT8=
EXTT9=
EXTT10=
EXTT11=
EXTT12=
EXTT13=
EXTT14=
EXTT15=
EXTT16=
EXTT17=
EXTT18=
EXTT19=
PLAYORDER=
